# xmcd CD database file
#
# Track frame offsets:
#	150
#	13997
#	33274
#	48815
#	64772
#	79371
#	95460
#	112804
#	130272
#	146440
#	160349
#	180707
#	196352
#	210004
#	226503
#	243457
#	256544
#	274730
#
# Disc length: 3903 seconds
#
# Revision: 2
# Processed by: cddbd v1.5.2PL0 Copyright (c) Steve Scherf et al.
# Submitted via: CDex 1.51
#
DISCID=e40f3d12
DTITLE=Various Artist - COUNTRY RC114
DYEAR=2009
DGENRE=Country
TTITLE0=It Happens - Sugarland
TTITLE1=Then - Brad Paisley
TTITLE2=Whatever It Is - Zac Brown Band
TTITLE3=Gettin' You Home (The Black Dress Song) - Chris Young
TTITLE4=Out Last Night - Kenny Chesney
TTITLE5=Small Town USA - Justin Moore
TTITLE6=Kiss A Girl - Keith Urban
TTITLE7=People Are Crazy - Billy Currington
TTITLE8=Lost You Anyway - Toby Keith
TTITLE9=Sideways - Dierks Bentley
TTITLE10=High Cost Of Living - Jamey Johnson
TTITLE11=Fight Like A Girl - Bomshel
TTITLE12=Sissy's Song - Alan Jackson
TTITLE13=Living' In Paradise - Jonathan Singleton and Grove
TTITLE14=The Climb - Miley Cyrus
TTITLE15=Boots On - Randy Houser
TTITLE16=Red Light - David Nail
TTITLE17=Just Hold On - Blake Shelton
EXTD=YEAR: 2009
EXTT0=
EXTT1=
EXTT2=
EXTT3=
EXTT4=
EXTT5=
EXTT6=
EXTT7=
EXTT8=
EXTT9=
EXTT10=
EXTT11=
EXTT12=
EXTT13=
EXTT14=
EXTT15=
EXTT16=
EXTT17=
PLAYORDER=
